HIERARCHY
ROOT Hips
{
	OFFSET 0.00000 0.00000 0.00000
	CHANNELS 6 Xposition Yposition Zposition Zrotation Yrotation Xrotation 
	JOINT LHipJoint
	{
		OFFSET 0 0 0
		CHANNELS 3 Zrotation Yrotation Xrotation
		JOINT LeftHip
		{
			OFFSET 1.44960 -1.75505 0.85172
			CHANNELS 3 Zrotation Yrotation Xrotation
			JOINT LeftKnee
			{
				OFFSET 2.40573 -6.60971 0.00000
				CHANNELS 3 Zrotation Yrotation Xrotation
				JOINT LeftAnkle
				{
					OFFSET 2.58773 -7.10974 0.00000
					CHANNELS 3 Zrotation Yrotation Xrotation
					JOINT LeftToe
					{
						OFFSET 0.18252 -0.50147 1.77316
						CHANNELS 3 Zrotation Yrotation Xrotation
						End Site
						{
							OFFSET 0.00000 -0.00000 0.92990
						}
					}
				}
			}
		}
	}
	JOINT RHipJoint
	{
		OFFSET 0 0 0
		CHANNELS 3 Zrotation Yrotation Xrotation
		JOINT RightHip
		{
			OFFSET -1.40744 -1.75505 0.85172
			CHANNELS 3 Zrotation Yrotation Xrotation
			JOINT RightKnee
			{
				OFFSET -2.43714 -6.69600 0.00000
				CHANNELS 3 Zrotation Yrotation Xrotation
				JOINT RightAnkle
				{
					OFFSET -2.51650 -6.91404 0.00000
					CHANNELS 3 Zrotation Yrotation Xrotation
					JOINT RightToe
					{
						OFFSET -0.25383 -0.69740 1.96384
						CHANNELS 3 Zrotation Yrotation Xrotation
						End Site
						{
							OFFSET -0.00000 -0.00000 1.04244
						}
					}
				}
			}
		}
	}
	JOINT lowerback
	{
		OFFSET 0 0 0
		CHANNELS 3 Zrotation Yrotation Xrotation
		JOINT Chest
		{
			OFFSET 0.00579 2.14458 -0.24367
			CHANNELS 3 Zrotation Yrotation Xrotation
			JOINT Chest2
			{
				OFFSET 0.05899 2.16316 -0.04515
				CHANNELS 3 Zrotation Yrotation Xrotation
				JOINT lowerneck
				{
					OFFSET 0 0 0
					CHANNELS 3 Zrotation Yrotation Xrotation
					JOINT Neck
					{
						OFFSET -0.01650 1.59577 0.24841
						CHANNELS 3 Zrotation Yrotation Xrotation
						JOINT Head
						{
							OFFSET -0.01016 1.63072 -0.17782
							CHANNELS 3 Zrotation Yrotation Xrotation
							End Site
							{
								OFFSET -0.00250 1.64111 -0.08717
							}
						}
					}
				}
				JOINT LeftCollar
				{
					OFFSET 0 0 0
					CHANNELS 3 Zrotation Yrotation Xrotation
					JOINT LeftShoulder
					{
						OFFSET 3.17745 0.95174 -0.45729
CHANNELS 3 Zrotation Xrotation Yrotation
						JOINT LeftElbow
						{
OFFSET 0 -4.934850 0.000000
CHANNELS 3 Zrotation Xrotation Yrotation
							JOINT LeftWrist
							{
OFFSET 0 -3.417190 -0.000000
CHANNELS 3 Zrotation Xrotation Yrotation
								JOINT lhand
								{
									OFFSET 0 0 0
CHANNELS 3 Zrotation Xrotation Yrotation
									JOINT LFingers
									{
OFFSET 0 -0.624100 -0.000000
CHANNELS 3 Zrotation Xrotation Yrotation
										End Site
										{
OFFSET 0 -0.503170 -0.000000
										}
									}
								}
								JOINT LThumb
								{
OFFSET 0 0.000000 0.000000
CHANNELS 3 Zrotation Xrotation Yrotation
									End Site
									{
OFFSET 0 -0.510850 0.510850
									}
								}
							}
						}
					}
				}
				JOINT RightCollar
				{
					OFFSET 0 0 0
					CHANNELS 3 Zrotation Yrotation Xrotation
					JOINT RightShoulder
					{
						OFFSET -2.87924 1.13038 -0.75204
CHANNELS 3 Zrotation Xrotation Yrotation
						JOINT RightElbow
						{
OFFSET 0 -5.220340 0.000000
CHANNELS 3 Zrotation Xrotation Yrotation
							JOINT RightWrist
							{
OFFSET 0 -3.418090 -0.000000
CHANNELS 3 Zrotation Xrotation Yrotation
								JOINT rhand
								{
									OFFSET 0 0 0
CHANNELS 3 Zrotation Xrotation Yrotation
									JOINT RFingers
									{
OFFSET 0 -0.775340 -0.000000
CHANNELS 3 Zrotation Xrotation Yrotation
										End Site
										{
OFFSET 0 -0.625100 -0.000000
										}
									}
								}
								JOINT RThumb
								{
OFFSET 0 0.000000 0.000000
CHANNELS 3 Zrotation Xrotation Yrotation
									End Site
									{
OFFSET 0 -0.634640 0.634640
									}
								}
							}
						}
					}
				}
			}
		}
	}
}
MOTION
Frames: 9
Frame Time: 0.008333333333333333
0.729844 17.426308 -24.402246 5.198355 7.954280 1.276219 0.000000 0.000000 0.000000 -29.765948 0.245752 -10.808298 0.847965 5.872296 16.414523 -0.380958 -19.425199 -10.134718 0.037592 1.248276 3.432230 0.000000 0.000000 0.000000 14.613304 -1.651161 -19.755395 -11.598882 -18.215866 64.711485 -0.282792 -6.003496 -14.023676 -0.823360 -5.783474 16.159084 -9.347245 0.202171 9.325274 -0.089492 -0.687024 1.076502 5.258889 -0.192010 -4.003043 -2.406762 -2.549169 -20.738325 1.434509 -2.986251 11.344625 0.505540 -1.408937 6.890239 0.000000 0.000000 0.000000 5.560633 4.222694 -23.260786 15.271727 -24.523139 3.337999 5.055848 10.575801 -41.168004 0.000000 0.000000 0.000000 -7.125000 0.000000 0.000000 -41.878360 66.681007 23.567125 0.000000 0.000000 0.000000 -8.490238 1.752676 6.233360 -12.771460 -20.951507 -2.370977 -25.702882 -34.781971 -24.677940 0.000000 0.000000 0.000000 7.125000 0.000000 0.000000 2.294425 2.979750 2.173682
0.749469 17.394443 -24.271573 5.688594 8.425180 0.910612 0.000000 0.000000 0.000000 -30.435721 0.287507 -10.332878 0.941647 6.180038 17.307829 -0.275052 -19.462251 -11.212726 0.025992 1.040709 2.860685 0.000000 0.000000 0.000000 13.755204 -1.326924 -20.447638 -11.497954 -18.170239 64.388239 -0.368005 -5.837928 -15.078265 -0.849575 -5.870189 16.410776 -9.724083 0.106281 9.745640 -0.377380 -0.926716 0.865066 5.204253 -0.278134 -4.423864 -2.395876 -2.513570 -19.946971 1.544576 -2.978179 11.154688 0.549278 -1.399276 6.701318 0.000000 0.000000 0.000000 6.016674 3.845858 -23.516353 15.311900 -24.578509 3.354739 4.495987 10.007923 -41.524358 0.000000 0.000000 0.000000 -7.125000 0.000000 0.000000 -43.011200 66.769968 24.383879 0.000000 0.000000 0.000000 -8.578584 2.225244 6.450435 -13.046837 -21.355182 -2.470730 -25.889284 -35.665196 -25.060140 0.000000 0.000000 0.000000 7.125000 0.000000 0.000000 2.232032 2.534866 2.132788
0.757662 17.371563 -24.149411 5.508654 8.681032 0.615287 0.000000 0.000000 0.000000 -30.267733 0.193451 -9.842214 1.020219 6.425581 18.024560 -0.207134 -19.651231 -12.008802 0.169149 2.630113 7.251638 0.000000 0.000000 0.000000 13.771950 -0.669284 -21.192701 -11.311225 -18.083948 63.787994 -0.452163 -5.850702 -16.188842 -0.600242 -4.959449 13.792992 -9.553723 -0.026205 10.022131 -0.437243 -1.119336 0.830479 5.075280 -0.367840 -4.588877 -2.200574 -2.543699 -19.646062 1.533367 -3.075494 11.057222 0.506497 -1.440474 6.619385 0.000000 0.000000 0.000000 6.353060 2.867931 -23.338573 15.207103 -24.433800 3.311145 4.371188 10.137911 -42.385674 0.000000 0.000000 0.000000 -7.125000 0.000000 0.000000 -44.602518 67.337140 25.983164 0.000000 0.000000 0.000000 -8.664638 2.280250 6.890100 -13.547021 -22.083315 -2.655466 -26.136787 -36.150420 -25.109499 0.000000 0.000000 0.000000 7.125000 0.000000 0.000000 2.088794 2.430527 1.999698
0.774201 17.353224 -24.024289 5.617994 9.050723 0.430842 0.000000 0.000000 0.000000 -30.496550 -0.265430 -9.493949 1.133162 6.759217 19.004486 -0.063478 -18.660733 -12.555572 0.028823 1.044456 2.871652 0.000000 0.000000 0.000000 13.343718 -0.090307 -22.047030 -11.038565 -17.953487 62.906265 -0.506989 -5.879421 -16.884294 -0.592398 -4.925657 13.696985 -9.751030 -0.152739 10.055038 -0.408867 -1.312184 0.816507 5.242732 -0.458269 -4.586845 -2.434335 -2.690134 -19.593795 1.820846 -3.263331 11.412402 0.614623 -1.514750 6.739134 0.000000 0.000000 0.000000 6.343921 2.061654 -23.371788 15.255731 -24.501174 3.331272 5.100267 10.190601 -41.776317 0.000000 0.000000 0.000000 -7.125000 0.000000 0.000000 -42.845436 67.132652 24.614709 0.000000 0.000000 0.000000 -9.081286 2.579343 7.813576 -14.172540 -22.979345 -2.896103 -26.089359 -37.543009 -25.802666 0.000000 0.000000 0.000000 7.125000 0.000000 0.000000 2.214117 1.703636 2.149044
0.781340 17.339123 -23.903812 5.705600 9.365852 0.361428 0.000000 0.000000 0.000000 -30.672158 -0.697240 -9.020837 1.219981 7.005843 19.732823 0.138662 -17.877351 -13.820890 0.002991 0.330562 0.908267 0.000000 0.000000 0.000000 12.976733 0.540045 -22.877384 -10.722891 -17.796646 61.878117 -0.567625 -5.769453 -17.500748 -0.640348 -5.119376 14.249408 -10.049651 -0.161970 9.984801 -0.388410 -1.348725 0.810890 5.435835 -0.472300 -4.540640 -2.224856 -2.873063 -19.412886 1.391253 -3.499469 11.329192 0.417214 -1.659508 6.675037 0.000000 0.000000 0.000000 6.464649 0.938009 -23.813567 15.154896 -24.361470 3.289624 5.320716 10.124920 -41.795796 0.000000 0.000000 0.000000 -7.125000 0.000000 0.000000 -42.662897 67.213713 24.569635 0.000000 0.000000 0.000000 -9.274781 2.564646 7.626938 -14.636299 -23.636914 -3.078671 -26.045109 -37.719744 -25.863326 0.000000 0.000000 0.000000 7.125000 0.000000 0.000000 2.249188 1.648617 2.185268
0.789748 17.314228 -23.786331 5.683884 9.616535 0.157551 0.000000 0.000000 0.000000 -30.751315 -1.047851 -8.643079 1.316256 7.266064 20.506261 0.120280 -17.988992 -13.739107 0.049264 1.417545 3.898685 0.000000 0.000000 0.000000 12.707996 1.153370 -23.586867 -10.372149 -17.613318 60.724334 -0.628469 -5.656144 -18.094089 -0.554016 -4.759514 13.225404 -10.000522 -0.372475 9.985498 -0.419715 -1.614846 0.953931 5.406982 -0.619679 -4.346251 -2.556885 -2.785432 -19.595641 1.994031 -3.391213 11.657853 0.674608 -1.565346 6.827646 0.000000 0.000000 0.000000 6.618067 -0.179730 -23.614699 15.220722 -24.452690 3.316837 5.566480 10.222913 -42.440514 0.000000 0.000000 0.000000 -7.125000 0.000000 0.000000 -43.547735 67.745087 25.658127 0.000000 0.000000 0.000000 -9.438995 2.255814 8.227738 -15.158725 -24.366658 -3.291194 -25.996987 -38.445055 -26.089424 0.000000 0.000000 0.000000 7.125000 0.000000 0.000000 2.309910 1.419000 2.253948
0.803142 17.291123 -23.659437 5.565698 9.864540 -0.070331 0.000000 0.000000 0.000000 -30.829872 -1.486083 -8.160963 1.401877 7.489517 21.174070 0.241719 -16.881722 -14.117220 0.084546 1.832285 5.043424 0.000000 0.000000 0.000000 12.517233 1.810201 -24.157674 -9.971460 -17.393055 59.391934 -0.680386 -5.658867 -18.655443 -0.460921 -4.354967 12.077600 -9.867927 -0.502511 10.116611 -0.390841 -1.786305 0.954251 5.388361 -0.704031 -4.393815 -2.301902 -2.674725 -19.752270 1.705987 -3.262441 11.820353 0.552428 -1.516945 6.894042 0.000000 0.000000 0.000000 6.741581 -1.022406 -23.731870 15.215901 -24.446056 3.314765 6.087263 9.923381 -42.055044 0.000000 0.000000 0.000000 -7.125000 0.000000 0.000000 -42.365842 67.632119 24.764192 0.000000 0.000000 0.000000 -9.644839 2.189826 8.530464 -15.638200 -25.026735 -3.491978 -25.737857 -38.869035 -26.467356 0.000000 0.000000 0.000000 7.125000 0.000000 0.000000 2.518982 1.074708 2.473646
0.812380 17.281221 -23.538779 5.514428 10.291118 -0.054623 0.000000 0.000000 0.000000 -30.887395 -2.164602 -7.597087 1.460496 7.637771 21.619409 0.271764 -16.594630 -14.222751 0.226656 3.063897 8.456839 0.000000 0.000000 0.000000 12.209836 2.302622 -24.925615 -9.510364 -17.124394 57.837970 -0.781501 -5.295263 -19.443224 -0.440232 -4.253112 11.790353 -9.832029 -0.687523 10.104812 -0.385322 -2.036355 0.788823 5.408480 -0.815727 -4.523026 -2.146400 -2.668253 -19.328975 1.630884 -3.295324 11.932307 0.503205 -1.534842 6.857560 0.000000 0.000000 0.000000 6.830921 -1.672855 -23.860020 15.288230 -24.546127 3.344783 6.396796 9.961202 -42.054558 0.000000 0.000000 0.000000 -7.125000 0.000000 0.000000 -42.052437 67.729533 24.639240 0.000000 0.000000 0.000000 -9.748694 2.182004 8.731218 -16.039595 -25.573600 -3.663445 -25.915326 -39.127613 -26.687703 0.000000 0.000000 0.000000 7.125000 0.000000 0.000000 2.444749 0.803226 2.412435
0.825210 17.268320 -23.418053 5.454479 10.381534 -0.165931 0.000000 0.000000 0.000000 -31.088071 -2.996367 -7.051233 1.543354 7.841750 22.234601 0.467823 -14.964808 -15.105457 0.186464 2.777467 7.660146 0.000000 0.000000 0.000000 11.918240 2.826763 -25.566157 -9.012510 -16.814482 56.131597 -0.814048 -5.212302 -19.711253 -0.369334 -3.903330 10.804917 -9.852696 -0.741977 10.128589 -0.302622 -2.113942 0.721823 5.520070 -0.847092 -4.591001 -2.400081 -2.664876 -19.251277 1.909984 -3.277826 12.309644 0.635692 -1.512079 6.977206 0.000000 0.000000 0.000000 6.766515 -2.492518 -24.007588 15.287851 -24.545455 3.344599 6.784220 10.460495 -42.366745 0.000000 0.000000 0.000000 -7.125000 0.000000 0.000000 -42.226784 68.072770 25.069893 0.000000 0.000000 0.000000 -9.897671 2.277431 8.737646 -16.623730 -26.358820 -3.918972 -25.764420 -38.939912 -26.584685 0.000000 0.000000 0.000000 7.125000 0.000000 0.000000 2.519770 0.945034 2.480465
